<svg width="24" height="24" viewBox="0 0 24 24" fill="none" xmlns="http://www.w3.org/2000/svg">
<rect x="2" y="6" width="2" height="16" fill="black"></rect>
<rect x="14" y="6" width="2" height="16" fill="black"></rect>
<rect x="8" y="2" width="2" height="16" fill="black"></rect>
<rect x="20" y="2" width="2" height="16" fill="black"></rect>
<rect x="4" y="4" width="2" height="2" fill="black"></rect>
<rect x="16" y="4" width="2" height="2" fill="black"></rect>
<rect x="12" y="6" width="2" height="2" fill="black"></rect>
<rect x="12" y="18" width="2" height="2" fill="black"></rect>
<rect x="10" y="4" width="2" height="2" fill="black"></rect>
<rect x="10" y="16" width="2" height="2" fill="black"></rect>
<rect x="4" y="20" width="2" height="2" fill="black"></rect>
<rect x="16" y="20" width="2" height="2" fill="black"></rect>
<rect x="6" y="2" width="2" height="2" fill="black"></rect>
<rect x="18" y="2" width="2" height="2" fill="black"></rect>
<rect x="6" y="18" width="2" height="2" fill="black"></rect>
<rect x="18" y="18" width="2" height="2" fill="black"></rect>
</svg>
